<svg xmlns="http://www.w3.org/2000/svg" xmlns:xlink="http://www.w3.org/1999/xlink" width="500" zoomAndPan="magnify" viewBox="0 0 375 374.999991" height="500" preserveAspectRatio="xMidYMid meet" version="1.0"><defs><clipPath id="204434a7de"><path d="M 51.324219 188 L 323.574219 188 L 323.574219 360.765625 L 51.324219 360.765625 Z M 51.324219 188 " clip-rule="nonzero"/></clipPath></defs><path fill="#ffffff" d="M 255.285156 61.335938 C 255.746094 62.445312 256.179688 63.566406 256.585938 64.695312 C 256.996094 65.828125 257.375 66.96875 257.726562 68.117188 C 258.074219 69.265625 258.398438 70.421875 258.691406 71.585938 C 258.988281 72.75 259.253906 73.921875 259.488281 75.101562 C 259.726562 76.277344 259.933594 77.460938 260.113281 78.648438 C 260.292969 79.839844 260.441406 81.03125 260.5625 82.226562 C 260.679688 83.421875 260.773438 84.617188 260.832031 85.820312 C 260.894531 87.019531 260.925781 88.21875 260.929688 89.421875 C 260.929688 90.621094 260.90625 91.824219 260.847656 93.023438 C 260.792969 94.222656 260.707031 95.421875 260.589844 96.617188 C 260.476562 97.8125 260.332031 99.007812 260.15625 100.195312 C 259.980469 101.382812 259.78125 102.566406 259.546875 103.746094 C 259.316406 104.925781 259.054688 106.097656 258.765625 107.265625 C 258.476562 108.429688 258.15625 109.589844 257.8125 110.738281 C 257.464844 111.890625 257.089844 113.03125 256.6875 114.164062 C 256.285156 115.292969 255.855469 116.417969 255.398438 117.527344 C 254.941406 118.636719 254.457031 119.738281 253.945312 120.824219 C 253.433594 121.910156 252.894531 122.984375 252.332031 124.046875 C 251.765625 125.105469 251.175781 126.152344 250.558594 127.183594 C 249.945312 128.21875 249.304688 129.234375 248.640625 130.234375 C 247.972656 131.234375 247.285156 132.21875 246.570312 133.183594 C 245.855469 134.148438 245.117188 135.097656 244.359375 136.027344 C 243.597656 136.960938 242.816406 137.871094 242.011719 138.761719 C 241.207031 139.65625 240.378906 140.527344 239.53125 141.378906 C 238.683594 142.230469 237.816406 143.058594 236.925781 143.867188 C 236.039062 144.675781 235.128906 145.460938 234.203125 146.226562 C 233.277344 146.992188 232.328125 147.730469 231.367188 148.449219 C 230.402344 149.167969 229.421875 149.859375 228.425781 150.53125 C 227.425781 151.199219 226.414062 151.84375 225.382812 152.464844 C 224.355469 153.082031 223.3125 153.679688 222.253906 154.246094 C 221.195312 154.816406 220.121094 155.355469 219.035156 155.875 C 217.953125 156.390625 216.855469 156.878906 215.746094 157.339844 C 214.636719 157.800781 213.515625 158.238281 212.386719 158.644531 C 211.253906 159.050781 210.117188 159.429688 208.96875 159.78125 C 207.816406 160.132812 206.660156 160.453125 205.496094 160.75 C 204.332031 161.042969 203.160156 161.308594 201.980469 161.546875 C 200.804688 161.78125 199.621094 161.988281 198.433594 162.167969 C 197.246094 162.347656 196.050781 162.496094 194.855469 162.617188 C 193.660156 162.738281 192.464844 162.828125 191.265625 162.890625 C 190.0625 162.949219 188.863281 162.984375 187.660156 162.984375 C 186.460938 162.988281 185.257812 162.960938 184.058594 162.902344 C 182.859375 162.847656 181.660156 162.761719 180.464844 162.644531 C 179.269531 162.53125 178.078125 162.386719 176.886719 162.210938 C 175.699219 162.039062 174.515625 161.835938 173.335938 161.605469 C 172.15625 161.371094 170.984375 161.109375 169.820312 160.820312 C 168.652344 160.53125 167.496094 160.214844 166.34375 159.867188 C 165.195312 159.519531 164.050781 159.144531 162.921875 158.742188 C 161.789062 158.339844 160.667969 157.910156 159.554688 157.453125 C 158.445312 156.996094 157.34375 156.511719 156.257812 156 C 155.171875 155.488281 154.097656 154.949219 153.035156 154.386719 C 151.976562 153.824219 150.929688 153.230469 149.898438 152.617188 C 148.867188 152 147.851562 151.359375 146.847656 150.695312 C 145.847656 150.03125 144.867188 149.339844 143.898438 148.625 C 142.933594 147.914062 141.984375 147.175781 141.054688 146.414062 C 140.125 145.65625 139.210938 144.871094 138.320312 144.066406 C 137.429688 143.261719 136.558594 142.433594 135.707031 141.585938 C 134.855469 140.738281 134.023438 139.871094 133.214844 138.984375 C 132.40625 138.09375 131.621094 137.1875 130.855469 136.257812 C 130.09375 135.332031 129.351562 134.386719 128.632812 133.421875 C 127.917969 132.460938 127.222656 131.476562 126.554688 130.480469 C 125.882812 129.484375 125.238281 128.46875 124.617188 127.441406 C 124 126.410156 123.40625 125.367188 122.835938 124.308594 C 122.269531 123.25 121.726562 122.179688 121.210938 121.09375 C 120.695312 120.007812 120.203125 118.910156 119.742188 117.800781 C 119.28125 116.691406 118.847656 115.574219 118.4375 114.441406 C 118.03125 113.3125 117.652344 112.171875 117.300781 111.023438 C 116.949219 109.875 116.628906 108.71875 116.332031 107.550781 C 116.039062 106.386719 115.773438 105.214844 115.539062 104.039062 C 115.300781 102.859375 115.09375 101.675781 114.914062 100.488281 C 114.734375 99.300781 114.585938 98.109375 114.464844 96.914062 C 114.34375 95.71875 114.253906 94.519531 114.191406 93.320312 C 114.132812 92.121094 114.101562 90.917969 114.097656 89.71875 C 114.09375 88.515625 114.121094 87.316406 114.179688 86.117188 C 114.234375 84.914062 114.320312 83.71875 114.4375 82.523438 C 114.550781 81.324219 114.695312 80.132812 114.871094 78.945312 C 115.042969 77.753906 115.246094 76.570312 115.480469 75.394531 C 115.710938 74.214844 115.972656 73.042969 116.261719 71.875 C 116.550781 70.710938 116.871094 69.550781 117.214844 68.398438 C 117.5625 67.25 117.9375 66.109375 118.339844 64.976562 C 118.742188 63.84375 119.171875 62.722656 119.628906 61.613281 C 120.085938 60.5 120.570312 59.402344 121.082031 58.316406 C 121.59375 57.226562 122.132812 56.152344 122.695312 55.09375 C 123.261719 54.03125 123.851562 52.984375 124.464844 51.953125 C 125.082031 50.921875 125.722656 49.90625 126.386719 48.90625 C 127.054688 47.90625 127.742188 46.921875 128.457031 45.957031 C 129.171875 44.988281 129.90625 44.039062 130.667969 43.109375 C 131.429688 42.179688 132.210938 41.269531 133.015625 40.375 C 133.820312 39.484375 134.648438 38.613281 135.496094 37.761719 C 136.34375 36.910156 137.210938 36.082031 138.101562 35.273438 C 138.988281 34.464844 139.898438 33.675781 140.824219 32.914062 C 141.75 32.148438 142.695312 31.40625 143.660156 30.691406 C 144.625 29.972656 145.605469 29.277344 146.601562 28.609375 C 147.601562 27.941406 148.613281 27.296875 149.640625 26.675781 C 150.671875 26.054688 151.714844 25.460938 152.773438 24.894531 C 153.832031 24.324219 154.90625 23.78125 155.988281 23.265625 C 157.074219 22.75 158.171875 22.261719 159.28125 21.800781 C 160.390625 21.335938 161.511719 20.902344 162.640625 20.496094 C 163.769531 20.089844 164.910156 19.710938 166.058594 19.359375 C 167.207031 19.007812 168.367188 18.683594 169.53125 18.390625 C 170.695312 18.097656 171.867188 17.832031 173.042969 17.59375 C 174.222656 17.355469 175.40625 17.148438 176.59375 16.96875 C 177.78125 16.792969 178.972656 16.640625 180.167969 16.523438 C 181.363281 16.402344 182.5625 16.3125 183.761719 16.25 C 184.960938 16.1875 186.164062 16.15625 187.363281 16.152344 C 188.566406 16.152344 189.765625 16.179688 190.96875 16.234375 C 192.167969 16.292969 193.367188 16.378906 194.5625 16.492188 C 195.757812 16.609375 196.949219 16.753906 198.136719 16.925781 C 199.328125 17.101562 200.511719 17.304688 201.691406 17.535156 C 202.867188 17.765625 204.042969 18.027344 205.207031 18.316406 C 206.375 18.609375 207.53125 18.925781 208.683594 19.273438 C 209.832031 19.617188 210.972656 19.992188 212.105469 20.394531 C 213.238281 20.796875 214.359375 21.226562 215.472656 21.683594 C 216.582031 22.144531 217.679688 22.628906 218.769531 23.140625 C 219.855469 23.652344 220.929688 24.1875 221.988281 24.753906 C 223.050781 25.316406 224.097656 25.90625 225.128906 26.523438 C 226.160156 27.136719 227.175781 27.777344 228.175781 28.445312 C 229.175781 29.109375 230.160156 29.800781 231.128906 30.511719 C 232.09375 31.226562 233.042969 31.964844 233.972656 32.722656 C 234.902344 33.484375 235.8125 34.265625 236.707031 35.074219 C 237.597656 35.878906 238.46875 36.703125 239.320312 37.550781 C 240.171875 38.398438 241.003906 39.269531 241.8125 40.15625 C 242.621094 41.046875 243.40625 41.953125 244.171875 42.878906 C 244.933594 43.808594 245.675781 44.753906 246.394531 45.714844 C 247.109375 46.679688 247.804688 47.660156 248.472656 48.660156 C 249.144531 49.65625 249.789062 50.667969 250.40625 51.699219 C 251.027344 52.726562 251.621094 53.773438 252.191406 54.832031 C 252.757812 55.890625 253.300781 56.960938 253.816406 58.046875 C 254.332031 59.132812 254.820312 60.226562 255.285156 61.335938 Z M 255.285156 61.335938 " fill-opacity="1" fill-rule="nonzero"/><g clip-path="url(#204434a7de)"><path fill="#ffffff" d="M 187.511719 188.09375 C 112.292969 188.09375 51.324219 249.082031 51.324219 324.285156 C 51.324219 344.023438 67.332031 360.03125 87.070312 360.03125 L 287.972656 360.03125 C 307.710938 360.03125 323.71875 344.023438 323.71875 324.285156 C 323.71875 249.082031 262.734375 188.09375 187.511719 188.09375 Z M 187.511719 188.09375 " fill-opacity="1" fill-rule="nonzero"/></g></svg>