<svg xmlns="http://www.w3.org/2000/svg" xmlns:xlink="http://www.w3.org/1999/xlink" width="500" zoomAndPan="magnify" viewBox="0 0 375 374.999991" height="500" preserveAspectRatio="xMidYMid meet" version="1.0"><defs><clipPath id="08c1bcc380"><path d="M 3.84375 0 L 371.15625 0 L 371.15625 375 L 3.84375 375 Z M 3.84375 0 " clip-rule="nonzero"/></clipPath><clipPath id="d3cbcd1649"><path d="M 359.191406 144.976562 L 285.695312 144.976562 L 225.332031 21.953125 C 218.808594 8.65625 205.558594 0.246094 190.75 0.00390625 C 176.015625 -0.21875 162.421875 7.734375 155.46875 20.808594 L 89.410156 144.976562 L 15.808594 144.976562 C 9.199219 144.976562 3.84375 150.332031 3.84375 156.9375 L 3.84375 165.542969 C 3.84375 172.152344 9.199219 177.507812 15.808594 177.507812 L 22.128906 177.507812 L 50.265625 357.15625 C 51.875 367.429688 60.726562 375 71.125 375 L 303.875 375 C 314.273438 375 323.125 367.429688 324.734375 357.15625 L 352.871094 177.503906 L 359.191406 177.503906 C 365.800781 177.503906 371.15625 172.148438 371.15625 165.542969 L 371.15625 156.9375 C 371.15625 150.332031 365.800781 144.976562 359.191406 144.976562 Z M 120.3125 320.183594 C 120.3125 323.820312 117.367188 326.765625 113.730469 326.765625 L 108.054688 326.765625 C 104.417969 326.765625 101.472656 323.820312 101.472656 320.183594 L 101.472656 216.808594 C 101.472656 213.171875 104.417969 210.222656 108.054688 210.222656 L 113.730469 210.222656 C 117.367188 210.222656 120.3125 213.171875 120.3125 216.808594 Z M 196.921875 320.183594 C 196.921875 323.820312 193.972656 326.765625 190.339844 326.765625 L 184.664062 326.765625 C 181.027344 326.765625 178.078125 323.820312 178.078125 320.183594 L 178.078125 216.808594 C 178.078125 213.171875 181.027344 210.222656 184.664062 210.222656 L 190.339844 210.222656 C 193.972656 210.222656 196.921875 213.171875 196.921875 216.808594 Z M 122.699219 144.976562 L 181.410156 34.609375 C 183.964844 29.808594 188.492188 29.378906 190.269531 29.386719 C 192.082031 29.417969 196.554688 30.011719 198.949219 34.898438 L 252.964844 144.976562 Z M 273.527344 320.183594 C 273.527344 323.820312 270.582031 326.765625 266.945312 326.765625 L 261.269531 326.765625 C 257.632812 326.765625 254.6875 323.820312 254.6875 320.183594 L 254.6875 216.808594 C 254.6875 213.171875 257.632812 210.222656 261.269531 210.222656 L 266.945312 210.222656 C 270.582031 210.222656 273.527344 213.171875 273.527344 216.808594 Z M 273.527344 320.183594 " clip-rule="nonzero"/></clipPath><clipPath id="7de5c2aa15"><path d="M 0.84375 0 L 368.15625 0 L 368.15625 375 L 0.84375 375 Z M 0.84375 0 " clip-rule="nonzero"/></clipPath><clipPath id="eee1b2467c"><path d="M 356.191406 144.976562 L 282.695312 144.976562 L 222.332031 21.953125 C 215.808594 8.65625 202.558594 0.246094 187.75 0.00390625 C 173.015625 -0.21875 159.421875 7.734375 152.46875 20.808594 L 86.410156 144.976562 L 12.808594 144.976562 C 6.199219 144.976562 0.84375 150.332031 0.84375 156.9375 L 0.84375 165.542969 C 0.84375 172.152344 6.199219 177.507812 12.808594 177.507812 L 19.128906 177.507812 L 47.265625 357.15625 C 48.875 367.429688 57.726562 375 68.125 375 L 300.875 375 C 311.273438 375 320.125 367.429688 321.734375 357.15625 L 349.871094 177.503906 L 356.191406 177.503906 C 362.800781 177.503906 368.15625 172.148438 368.15625 165.542969 L 368.15625 156.9375 C 368.15625 150.332031 362.800781 144.976562 356.191406 144.976562 Z M 117.3125 320.183594 C 117.3125 323.820312 114.367188 326.765625 110.730469 326.765625 L 105.054688 326.765625 C 101.417969 326.765625 98.472656 323.820312 98.472656 320.183594 L 98.472656 216.808594 C 98.472656 213.171875 101.417969 210.222656 105.054688 210.222656 L 110.730469 210.222656 C 114.367188 210.222656 117.3125 213.171875 117.3125 216.808594 Z M 193.921875 320.183594 C 193.921875 323.820312 190.972656 326.765625 187.339844 326.765625 L 181.664062 326.765625 C 178.027344 326.765625 175.078125 323.820312 175.078125 320.183594 L 175.078125 216.808594 C 175.078125 213.171875 178.027344 210.222656 181.664062 210.222656 L 187.339844 210.222656 C 190.972656 210.222656 193.921875 213.171875 193.921875 216.808594 Z M 119.699219 144.976562 L 178.410156 34.609375 C 180.964844 29.808594 185.492188 29.378906 187.269531 29.386719 C 189.082031 29.417969 193.554688 30.011719 195.949219 34.898438 L 249.964844 144.976562 Z M 270.527344 320.183594 C 270.527344 323.820312 267.582031 326.765625 263.945312 326.765625 L 258.269531 326.765625 C 254.632812 326.765625 251.6875 323.820312 251.6875 320.183594 L 251.6875 216.808594 C 251.6875 213.171875 254.632812 210.222656 258.269531 210.222656 L 263.945312 210.222656 C 267.582031 210.222656 270.527344 213.171875 270.527344 216.808594 Z M 270.527344 320.183594 " clip-rule="nonzero"/></clipPath><clipPath id="e170d26a65"><rect x="0" width="369" y="0" height="375"/></clipPath></defs><g clip-path="url(#08c1bcc380)"><g clip-path="url(#d3cbcd1649)"><g transform="matrix(1, 0, 0, 1, 3, 0)"><g clip-path="url(#e170d26a65)"><g clip-path="url(#7de5c2aa15)"><g clip-path="url(#eee1b2467c)"><path fill="#ffffff" d="M 0.84375 0 L 368.15625 0 L 368.15625 374.808594 L 0.84375 374.808594 Z M 0.84375 0 " fill-opacity="1" fill-rule="nonzero"/></g></g></g></g></g></g></svg>